<?xml version="1.0" encoding="UTF-8"?>
<svg width="111px" height="40px" viewBox="0 0 111 40" version="1.1" xmlns="http://www.w3.org/2000/svg" xmlns:xlink="http://www.w3.org/1999/xlink">
    <!-- Generator: Sketch 59.1 (86144) - https://sketch.com -->
    <title>Logo</title>
    <desc>Created with Sketch.</desc>
    <g id="Symbols" stroke="none" stroke-width="1" fill="none" fill-rule="evenodd">
        <g id="Header/white/back/burger" transform="translate(-134.000000, -10.000000)" fill="#FFFFFF">
            <g id="Logo/white" transform="translate(134.000000, 10.000000)">
                <g id="Group-7">
                    <path d="M110.829193,20.0925118 C110.829193,18.825782 110.531106,17.6866351 109.934172,16.6743128 C109.337808,15.6621801 108.510716,14.8672986 107.454413,14.2898578 C106.397921,13.7122275 105.216957,13.4233175 103.911711,13.4233175 C102.594321,13.4233175 101.406906,13.7122275 100.350034,14.2898578 C99.2937313,14.8672986 98.4639826,15.6652133 97.8611672,16.6836019 C97.2583518,17.7019905 96.9572287,18.8384834 96.9572287,20.0925118 C96.9572287,21.347109 97.2583518,22.4834123 97.8611672,23.5016114 C98.4639826,24.5201896 99.2937313,25.3179147 100.350034,25.8953555 C101.406906,26.4729858 102.594321,26.7618957 103.911711,26.7618957 C105.216957,26.7618957 106.397921,26.4729858 107.454413,25.8953555 C108.510716,25.3179147 109.337808,24.5232227 109.934172,23.5109005 C110.531106,22.4987678 110.829193,21.3594313 110.829193,20.0925118 L110.829193,20.0925118 Z M108.964772,20.0925118 C108.964772,21.0363981 108.743911,21.890237 108.303136,22.654218 C107.861413,23.4178199 107.258977,24.0170616 106.494121,24.4517536 C105.729644,24.8866351 104.868777,25.1038863 103.911711,25.1038863 C102.954454,25.1038863 102.087516,24.8866351 101.310706,24.4517536 C100.533516,24.0170616 99.924439,23.4178199 99.4832851,22.654218 C99.0419415,21.890237 98.8214595,21.0363981 98.8214595,20.0925118 C98.8214595,19.1488152 99.0419415,18.2949763 99.4832851,17.5309953 C99.924439,16.7672038 100.533516,16.1683412 101.310706,15.7334597 C102.087516,15.2989573 102.954454,15.081327 103.911711,15.081327 C104.868777,15.081327 105.729644,15.2989573 106.494121,15.7334597 C107.258977,16.1683412 107.861413,16.7672038 108.303136,17.5309953 C108.743911,18.2949763 108.964772,19.1488152 108.964772,20.0925118 L108.964772,20.0925118 Z M93.4145262,16.5903318 L94.5704441,15.4354502 C93.9738903,14.7772512 93.2498287,14.277346 92.3982595,13.935545 C91.5466903,13.5943128 90.598921,13.4233175 89.5547621,13.4233175 C88.2244697,13.4233175 87.0281364,13.7091943 85.9655723,14.2803791 C84.9026287,14.8517536 84.0698441,15.6468246 83.4670287,16.6648341 C82.8638338,17.6832227 82.562521,18.825782 82.562521,20.0925118 C82.562521,21.3594313 82.8638338,22.4987678 83.4670287,23.5109005 C84.0698441,24.5232227 84.8995928,25.3179147 85.9560851,25.8953555 C87.0123877,26.4729858 88.1996133,26.7618957 89.5177621,26.7618957 C90.4497826,26.7618957 91.3448031,26.6189573 92.2024441,26.3330806 C93.0602749,26.0475829 93.8118492,25.6377251 94.4588749,25.1038863 L94.4588749,20.0180095 L92.6686441,20.0180095 L92.6686441,20.0225592 L88.8675108,20.0225592 L88.8675108,21.654218 L92.6686441,21.654218 L92.6686441,24.2655924 C91.7982903,24.8240758 90.7789877,25.1038863 89.6107364,25.1038863 C88.6286236,25.1038863 87.7429005,24.8866351 86.9537569,24.4517536 C86.1642338,24.0170616 85.5460492,23.4178199 85.0988236,22.654218 C84.650839,21.890237 84.4271313,21.0363981 84.4271313,20.0925118 C84.4271313,19.1363033 84.650839,18.2762085 85.0988236,17.5126066 C85.5460492,16.7486256 86.1642338,16.1526066 86.9537569,15.723981 C87.7429005,15.295545 88.6346954,15.081327 89.6293313,15.081327 C91.1083826,15.081327 92.3703672,15.584455 93.4145262,16.5903318 L93.4145262,16.5903318 Z M79.8776492,23.5109005 C80.4742031,22.4987678 80.7728595,21.3594313 80.7728595,20.0925118 C80.7728595,18.825782 80.4742031,17.6866351 79.8776492,16.6743128 C79.2809056,15.6621801 78.4541928,14.8672986 77.39808,14.2898578 C76.3410185,13.7122275 75.1606236,13.4233175 73.8551877,13.4233175 C72.5372287,13.4233175 71.3503826,13.7122275 70.2938903,14.2898578 C69.2372082,14.8672986 68.4074595,15.6652133 67.8046441,16.6836019 C67.2014492,17.7019905 66.9003262,18.8384834 66.9003262,20.0925118 C66.9003262,21.347109 67.2014492,22.4834123 67.8046441,23.5016114 C68.4074595,24.5201896 69.2372082,25.3179147 70.2938903,25.8953555 C71.3503826,26.4729858 72.5372287,26.7618957 73.8551877,26.7618957 C75.1606236,26.7618957 76.3410185,26.4729858 77.39808,25.8953555 C78.4541928,25.3179147 79.2809056,24.5232227 79.8776492,23.5109005 L79.8776492,23.5109005 Z M78.908439,20.0925118 C78.908439,21.0363981 78.6873877,21.890237 78.2462338,22.654218 C77.8048903,23.4178199 77.2020749,24.0170616 76.4375979,24.4517536 C75.673121,24.8866351 74.8124441,25.1038863 73.8551877,25.1038863 C72.8979313,25.1038863 72.0306133,24.8866351 71.2541826,24.4517536 C70.4771826,24.0170616 69.8679159,23.4178199 69.4267621,22.654218 C68.9856082,21.890237 68.7651262,21.0363981 68.7651262,20.0925118 C68.7651262,19.1488152 68.9856082,18.2949763 69.4267621,17.5309953 C69.8679159,16.7672038 70.4771826,16.1683412 71.2541826,15.7334597 C72.0306133,15.2989573 72.8979313,15.081327 73.8551877,15.081327 C74.8124441,15.081327 75.673121,15.2989573 76.4375979,15.7334597 C77.2020749,16.1683412 77.8048903,16.7672038 78.2462338,17.5309953 C78.6873877,18.2949763 78.908439,19.1488152 78.908439,20.0925118 L78.908439,20.0925118 Z M57.1298595,26.612891 L66.06128,26.612891 L66.06128,24.9920379 L58.99428,24.9920379 L58.99428,13.5723223 L57.1298595,13.5723223 L57.1298595,26.612891 Z M51.3497005,26.612891 L53.214121,26.612891 L53.214121,13.5727014 L51.3497005,13.5727014 L51.3497005,26.612891 Z M44.8424441,15.1931754 L49.3173569,15.1931754 L49.3173569,13.5723223 L38.5217056,13.5723223 L38.5217056,15.1931754 L42.9966185,15.1931754 L42.9966185,26.612891 L44.8424441,26.612891 L44.8424441,15.1931754 Z M37.7946082,26.612891 L34.699321,22.2350711 C35.6191979,21.9122275 36.3275108,21.3967773 36.8250185,20.68891 C37.3223364,19.9806635 37.5707108,19.123981 37.5707108,18.1179147 C37.5707108,16.7019905 37.0861056,15.5909005 36.1165159,14.7833175 C35.1469262,13.9761137 33.8166338,13.5723223 32.1262082,13.5723223 L27.0359569,13.5723223 L27.0359569,26.612891 L28.9005672,26.612891 L28.9005672,15.1931754 L32.0704236,15.1931754 C33.2513877,15.1931754 34.15248,15.4445498 34.7738903,15.9476777 C35.3953005,16.4506161 35.7062903,17.174218 35.7062903,18.1179147 C35.7062903,19.0618009 35.3953005,19.788436 34.7738903,20.2974408 C34.15248,20.8070142 33.2513877,21.0612322 32.0704236,21.0612322 L30.8482851,21.0612322 L30.8482851,22.6447393 L32.1262082,22.6447393 C32.3250595,22.6447393 32.59848,22.6324171 32.9466595,22.6075829 L35.7622646,26.612891 L37.7946082,26.612891 Z M14.5434287,26.612891 L24.0154287,26.612891 L24.0154287,24.9920379 L16.408039,24.9920379 L16.408039,20.7819905 L22.9526749,20.7819905 L22.9526749,19.1982938 L16.408039,19.1982938 L16.408039,15.1931754 L23.7545313,15.1931754 L23.7545313,13.5723223 L14.5434287,13.5723223 L14.5434287,26.612891 Z M2.52658769,22.654218 C2.0852441,21.890237 1.86476205,21.0363981 1.86476205,20.0925118 C1.86476205,19.1488152 2.0852441,18.2949763 2.52658769,17.5309953 C2.96755179,16.7672038 3.58023385,16.1683412 4.36330564,15.7334597 C5.14599795,15.2989573 6.02280308,15.081327 6.99201333,15.081327 C8.45854154,15.081327 9.68352615,15.5967773 10.6652595,16.6276777 L11.8773415,15.4538389 C11.2807877,14.7833175 10.5595723,14.277346 9.7146441,13.935545 C8.86914667,13.5943128 7.93674667,13.4233175 6.9174441,13.4233175 C5.61238769,13.4233175 4.43123385,13.7122275 3.37512103,14.2898578 C2.31805949,14.8672986 1.4919159,15.6621801 0.894982564,16.6743128 C0.298618462,17.6866351 -3.7948718e-05,18.825782 -3.7948718e-05,20.0925118 C-3.7948718e-05,21.3594313 0.298618462,22.4987678 0.894982564,23.5109005 C1.4919159,24.5232227 2.31521333,25.3179147 3.36582359,25.8953555 C4.41586462,26.4729858 5.59379282,26.7618957 6.89884923,26.7618957 C7.91796205,26.7618957 8.85377744,26.5880569 9.70515692,26.2401896 C10.5563467,25.8927014 11.2807877,25.383128 11.8773415,24.7124171 L10.6652595,23.5391469 C9.67062359,24.5823697 8.44639795,25.1038863 6.99201333,25.1038863 C6.02280308,25.1038863 5.14599795,24.8866351 4.36330564,24.4517536 C3.58023385,24.0170616 2.96755179,23.4178199 2.52658769,22.654218 L2.52658769,22.654218 Z" id="Fill-1"></path>
                    <path d="M37.2018113,8.14087204 L35.494119,8.14087204 L35.4943087,1.66845498 C35.5185959,0.783905213 36.1227395,0.189592417 36.9976472,0.189592417 L43.4523446,0.189592417 L43.4523446,1.89575355 L37.2018113,1.89575355 L37.2018113,8.14087204 Z M75.3353395,8.14087204 L73.6276472,8.14087204 L73.6276472,1.89632227 L67.3771138,1.89575355 L67.3771138,0.189592417 L73.832001,0.189592417 C74.7074779,0.189592417 75.3114318,0.784094787 75.33496,1.6690237 L75.3353395,1.69158294 L75.3353395,8.14087204 Z M43.4523446,39.9954692 L36.9976472,39.9954692 C36.1227395,39.9954692 35.5185959,39.4009668 35.4943087,38.5164171 L35.494119,38.4932891 L35.494119,32.0443791 L37.2018113,32.0443791 L37.2018113,38.2885498 L43.4523446,38.2893081 L43.4523446,39.9954692 Z M73.832001,39.9954692 L67.3771138,39.9954692 L67.3771138,38.2893081 L73.6276472,38.2893081 L73.6276472,32.0443791 L75.3353395,32.0443791 L75.33496,38.5160379 C75.3114318,39.4007773 74.7074779,39.9954692 73.832001,39.9954692 L73.832001,39.9954692 Z" id="Fill-4"></path>
                </g>
            </g>
        </g>
    </g>
</svg>