<svg xmlns="http://www.w3.org/2000/svg" width="211.023" height="79.333" viewBox="0 0 211.023 79.333" xml:space="preserve"><path d="m106.1 35.605-4.458 4.415 4.458 22.165v-26.58zm-.414-.415-4.416-4.461-22.167 4.461h26.583zm.414-26.999v26.583l4.459-4.415m-4.041 4.831 4.412 4.458 22.168-4.458h-26.58zm4.657-5.081 25.116 5.081-25.116 5.079-5.075 25.108-5.077-25.108-25.11-5.079 25.109-5.081 5.077-25.11 5.076 25.11zM37.553 50.907H18.015v5.439h1.648c.64-3.288 3.714-3.617 5.488-3.617v18.858c0 1.605-.332 2.341-1.992 2.417v1.823h9.509v-1.823c-1.967-.075-1.992-1.026-1.992-2.634V52.73c1.812 0 4.491.561 5.125 3.617h1.752v-5.44zm41.607 0h-7.004v1.822c1.9.294 2.225 1.375 2.225 4.042v9.408h-.075l-9.38-15.272h-7.205v1.822c.986.294 2.702.907 3.357 2.364v13.306c-.036 3.803-.438 4.836-2.23 5.605v1.823h6.726v-1.823c-2.048-.368-2.444-1.695-2.444-3.958V56.942l.071.146 11.513 18.979h1.716V56.225c0-1.449.212-2.494.771-3.026.58-.553 1.959-.469 1.959-.469v-1.823z"/><path d="M80.556 52.729c1.509.063 2.189.8 2.189 2.417v16.148c0 1.789-.447 2.557-2.054 2.709v1.823H96.95l.62-6.322h-1.654c-1.02 2.924-3.011 4.499-4.947 4.499-1.902 0-2.926-1.319-2.926-3.401V63.66c2.707 0 5.01.947 5.376 3.289h1.703v-8.08h-1.767c-.366 2.157-2.645 2.964-5.312 2.964v-9.104h1.391c2.336 0 4.592.584 6.161 3.477h1.573v-5.299H80.556v1.822zm41.837 23.098v-1.823c-1.596-.075-2.027-.694-2.027-2.6V55.106c0-1.609.54-2.377 2.027-2.377v-1.822h-8.897v1.822c1.44.035 1.875.917 1.875 2.341v16.483c0 1.64-.359 2.338-1.875 2.451v1.823h8.897zm30.95-6.28h-1.492c-1.167 2.926-3.078 4.441-5.05 4.441-1.312 0-1.229-1.316-1.229-3.838V55.243c0-1.648.453-2.416 1.987-2.523v-1.826h-8.58v1.826c1.315.107 1.697.841 1.697 2.481v16.23c0 1.609-.201 2.449-1.697 2.557v1.823h13.625l.739-6.264z"/><path fill-rule="evenodd" clip-rule="evenodd" d="m163.983 65.122-4.258-.003 2.147-8.603h.073l2.038 8.606zm35.705-12.393-.605-.017v18.473c0 2.266.699 2.818 1.833 2.818 2.665 0 3.376-4.458 3.376-10.855 0-8.482-2.056-10.377-4.604-10.419zm-8.002.016c-1.473.224-1.625 1.383-1.625 3.461V76.05h-1.763l-11.617-19.06-.069-.148v13.104c0 2.264.495 3.936 2.542 4.303v1.584l-14.99-.007v-1.513c1.026-.26 1.5-1.155 1.5-2.104 0-.44-.109-.916-.402-2.157l-.688-2.743h-5.422l-.635 2.263c-.161.695-.451 1.687-.451 2.16 0 1.059.587 2.179 1.718 2.58v1.513h-6.069v-1.513c1.282-.66 1.723-1.775 2.814-5.684l4.502-15.75-.59-1.973h5.158l4.787 18.598c.917 3.66 1.356 4.408 2.331 4.442.412.012.669-.031.928-.318.683-.757.79-2.524.879-4.271l.003-14.442s-1.381-1.893-2.366-2.187v-1.822h6.403l9.354 15.322h.074V56.82c0-2.665-.356-3.797-2.261-4.091v-1.822h5.954v1.838zm.952-1.838h7.144c6.763 0 10.242 3.449 10.242 12.458 0 5.881-1.652 12.461-9.547 12.461h-7.846s0-1.871.004-1.861c1.276-.241 1.212-1.034 1.212-2.706V54.995c0-1.051-.269-1.959-1.207-2.195-.002-.012-.002-1.893-.002-1.893z"/><path d="M16.619 50.844h-1.558s-.137.446-.355.521a.865.865 0 0 1-.543-.019c-.187-.068-1.509-.687-3.062-.951-1.558-.266-3.572-.146-4.943.501-.759.359-1.379.77-1.95 1.328a5.377 5.377 0 0 0-1.281 1.968c-.486 1.337-.612 2.921-.09 4.429.521 1.511 1.528 2.801 2.36 3.716.38.418 1.111 1.119 1.83 1.839.854.858 1.7 1.733 2.059 2.098.65.658 1.384 1.33 2.215 2.441.869 1.163 1.208 2.16 1.042 3.205-.164 1.042-.631 1.655-1.253 1.995a2.95 2.95 0 0 1-2.515.138c-.962-.394-1.576-1.108-1.915-1.631-.357-.551-.815-1.556-1.052-2.35-.237-.798-.476-1.858-.476-1.858H3.22v7.596s1.358.011 1.362 0c.083-.164.383-.517.668-.66.404-.202.823-.173 1.219-.01.392.166.825.359 1.445.567a7.077 7.077 0 0 0 3.03.349c1.274-.118 1.738-.284 2.569-.688a6.042 6.042 0 0 0 2.793-2.7c.806-1.547.962-3.427.676-4.914-.301-1.574-1.079-2.699-2.288-4.109-1.347-1.571-2.608-2.728-3.028-3.139a787 787 0 0 0-2.681-2.619c-.889-.86-1.3-1.637-1.501-2.241-.201-.605-.228-1.931.375-2.628.604-.696 1.445-.904 2.371-.822.923.082 1.976.897 2.552 1.656.576.76 1.072 1.738 1.264 2.443.192.706.293 1.063.312 1.182.017.119.117.713.137.75h2.124v-7.383z"/><path d="M16.619 50.844h-1.558s-.137.446-.355.521a.865.865 0 0 1-.543-.019c-.187-.068-1.509-.687-3.062-.951-1.558-.266-3.572-.146-4.943.501-.759.359-1.379.77-1.95 1.328a5.377 5.377 0 0 0-1.281 1.968c-.486 1.337-.612 2.921-.09 4.429.521 1.511 1.528 2.801 2.36 3.716.38.418 1.111 1.119 1.83 1.839.854.858 1.7 1.733 2.059 2.098.65.658 1.384 1.33 2.215 2.441.869 1.163 1.208 2.16 1.042 3.205-.164 1.042-.631 1.655-1.253 1.995a2.95 2.95 0 0 1-2.515.138c-.962-.394-1.576-1.108-1.915-1.631-.357-.551-.815-1.556-1.052-2.35-.237-.798-.476-1.858-.476-1.858H3.22v7.596s1.358.011 1.362 0c.083-.164.383-.517.668-.66.404-.202.823-.173 1.219-.01.392.166.825.359 1.445.567a7.077 7.077 0 0 0 3.03.349c1.274-.118 1.738-.284 2.569-.688a6.042 6.042 0 0 0 2.793-2.7c.806-1.547.962-3.427.676-4.914-.301-1.574-1.079-2.699-2.288-4.109-1.347-1.571-2.608-2.728-3.028-3.139a787 787 0 0 0-2.681-2.619c-.889-.86-1.3-1.637-1.501-2.241-.201-.605-.228-1.931.375-2.628.604-.696 1.445-.904 2.371-.822.923.082 1.976.897 2.552 1.656.576.76 1.072 1.738 1.264 2.443.192.706.293 1.063.312 1.182.017.119.117.713.137.75h2.124v-7.383zm120.767.056h-1.547s-.139.449-.356.522a.877.877 0 0 1-.542-.018c-.187-.07-1.508-.687-3.064-.953-1.556-.267-3.568-.146-4.943.504-.757.358-1.377.77-1.947 1.327a5.347 5.347 0 0 0-1.281 1.969c-.486 1.335-.616 2.918-.095 4.43.522 1.508 1.532 2.799 2.363 3.714.38.418 1.113 1.121 1.832 1.841.854.857 1.699 1.73 2.058 2.095.65.659 1.382 1.331 2.217 2.443.869 1.163 1.208 2.161 1.042 3.204-.162 1.043-.63 1.657-1.254 1.995a2.932 2.932 0 0 1-2.515.137c-.963-.394-1.576-1.106-1.914-1.629-.36-.552-.815-1.555-1.053-2.352-.237-.796-.475-1.857-.475-1.857h-1.913v7.595s1.359.013 1.362 0c.083-.165.384-.517.668-.658.404-.203.825-.175 1.218-.009.395.166.828.355 1.447.567a7.059 7.059 0 0 0 3.03.347c1.271-.12 1.737-.284 2.57-.685.888-.432 2.017-1.211 2.793-2.702.806-1.546.961-3.426.676-4.915-.303-1.573-1.08-2.7-2.288-4.109-1.347-1.571-2.607-2.728-3.03-3.139-.421-.411-1.793-1.756-2.68-2.617-.888-.86-1.3-1.64-1.502-2.243-.202-.604-.229-1.932.376-2.626.604-.695 1.444-.907 2.371-.823.924.081 1.975.896 2.551 1.655.576.76 1.072 1.74 1.264 2.444.191.704.292 1.06.312 1.182.017.118.118.713.139.75h2.12l-.01-7.386z"/><path fill-rule="evenodd" clip-rule="evenodd" d="M47.786 50.504c2.635 0 10.304 1.746 10.304 12.74 0 10.996-7.107 13.068-10.304 13.068-3.196 0-10.299-2.099-10.299-13.068 0-10.971 7.566-12.74 10.299-12.74zm-3.258 5.163c-.258 1.025-.658 3.807-.71 7.542-.046 3.734.379 6.699.699 8.052.316 1.356 1.512 3.161 3.27 3.161s2.489-1.353 3.124-2.818c.635-1.466.845-6.053.845-8.395 0-2.343-.309-6.248-.797-7.956-.488-1.708-1.758-2.88-3.173-2.88-2.088-.001-3.002 2.268-3.258 3.294z"/></svg>